# xmcd CD database file
#
# Track frame offsets:
#	150
#	16386
#	33870
#	51770
#	69026
#	86266
#	101350
#	119605
#	136523
#	151959
#	168133
#	184777
#	201027
#	214961
#	230095
#	244605
#	262405
#	275752
#
# Disc length: 3881 seconds
#
# Revision: 4
# Processed by: cddbd v1.5.2PL0 Copyright (c) Steve Scherf et al.
# Submitted via: CDex 1.51
#
DISCID=f20f2712
DTITLE=Varios - Las Grandes Sesiones De La Salsa 2 [CD1)
DYEAR=2003
DGENRE=Salsa/Merengue
TTITLE0=Iván Iván - La negrita
TTITLE1=La Grande De Siempre - Todo por amor
TTITLE2=Willie Amadeo - Diga que sí
TTITLE3=Joe King - Quédate
TTITLE4=Jorge Leo y Rio Atrato - Atado a tu amor
TTITLE5=Diómedes And Grupo Mío - La fiesta
TTITLE6=Eko - Bailando contigo
TTITLE7=La Línea - Huellas
TTITLE8=Osvil - Vivir así es morir de amor
TTITLE9=Doble Impacto - Desde aquel día
TTITLE10=Reynaldo Rey - Un buen perdedor
TTITLE11=Tony Rivas - Hay amores
TTITLE12=La Muralla - La fuerza del corazón
TTITLE13=Patrick Shannon - Estás enamorada
TTITLE14=Carlos Manuel - El fin de semana
TTITLE15=Danny And Junior - Triste buscando bmor
TTITLE16=Rubby Pérez - Volveré
TTITLE17=Anntony - Clavado en un bar
EXTD=YEAR: 2003
EXTT0=
EXTT1=
EXTT2=
EXTT3=
EXTT4=
EXTT5=
EXTT6=
EXTT7=
EXTT8=
EXTT9=
EXTT10=
EXTT11=
EXTT12=
EXTT13=
EXTT14=
EXTT15=
EXTT16=
EXTT17=
PLAYORDER=
